<svg width="159" height="117" viewBox="0 0 159 117" fill="none" xmlns="http://www.w3.org/2000/svg">
    <path d="M54.04 0C48.25 0 42.96 2.24 39.03 5.89C35.62 9.06 33.21 13.31 32.33 18.09C27.55 18.97 23.3 21.38 20.13 24.79C16.75 28.42 14.61 33.23 14.3 38.51C10.45 39.96 7.11 42.45 4.63 45.64C1.73 49.36 0 54.07 0 59.16C0 64.61 1.98 69.61 5.26 73.46C7.99 76.67 11.64 79.07 15.8 80.3C15.77 80.73 15.74 81.15 15.74 81.59C15.74 87.32 17.93 92.56 21.51 96.48C24.73 100.01 29.1 102.48 34.02 103.33C35.66 106.85 38.2 109.87 41.34 112.09C44.92 114.62 49.32 116.11 54.03 116.11C60.12 116.11 65.66 113.63 69.65 109.64C73.64 105.65 76.12 100.11 76.12 94.02V22.09C76.12 16 73.64 10.46 69.65 6.47C65.67 2.48 60.13 0 54.04 0ZM70.66 33.15H64.59L57.71 25.04C58.6 23.85 59.13 22.37 59.13 20.78C59.13 18.82 58.33 17.01 57.04 15.73C55.76 14.44 53.95 13.64 51.99 13.64C50.03 13.64 48.22 14.44 46.94 15.73C45.65 17.01 44.85 18.82 44.85 20.78C44.85 22.74 45.65 24.55 46.94 25.83C48.22 27.12 50.03 27.92 51.99 27.92C52.31 27.92 52.62 27.89 52.92 27.85L62.05 38.62H70.66V45.17H51.34L46.83 41.61C47.14 40.81 47.32 39.94 47.32 39.04C47.32 37.08 46.52 35.27 45.23 33.99C43.95 32.7 42.14 31.9 40.18 31.9C38.22 31.9 36.41 32.7 35.13 33.99C33.84 35.27 33.04 37.08 33.04 39.04C33.04 41 33.84 42.81 35.13 44.09C36.41 45.38 38.22 46.18 40.18 46.18C41.19 46.18 42.16 45.96 43.04 45.58L49.44 50.64H70.66V57.08H29C28.64 56.21 28.11 55.42 27.45 54.76C26.17 53.47 24.36 52.67 22.4 52.67C20.44 52.67 18.63 53.47 17.35 54.76C16.06 56.04 15.26 57.85 15.26 59.81C15.26 61.77 16.06 63.58 17.35 64.86C18.63 66.15 20.44 66.95 22.4 66.95C24.36 66.95 26.17 66.15 27.45 64.86C28.11 64.21 28.63 63.42 29 62.54H70.66V69.98H51.18C50.82 69.11 50.29 68.32 49.63 67.66C48.35 66.37 46.54 65.57 44.58 65.57C42.62 65.57 40.81 66.37 39.53 67.66C38.24 68.94 37.44 70.75 37.44 72.71C37.44 74.67 38.24 76.48 39.53 77.76C40.81 79.05 42.62 79.85 44.58 79.85C46.54 79.85 48.35 79.05 49.63 77.76C50.29 77.11 50.81 76.32 51.18 75.44H70.66V94.01C70.66 98.61 68.8 102.75 65.79 105.77C62.77 108.78 58.63 110.64 54.03 110.64C50.46 110.64 47.19 109.52 44.49 107.62C41.79 105.72 39.68 103.02 38.49 99.88L37.89 98.29L36.2 98.13C31.99 97.72 28.25 95.75 25.54 92.79C22.84 89.83 21.2 85.91 21.2 81.59C21.2 80.63 21.3 79.66 21.47 78.69L21.94 75.99L19.24 75.52C15.33 74.85 11.88 72.81 9.41 69.91C6.94 67.01 5.46 63.27 5.45 59.16C5.45 55.32 6.75 51.81 8.93 49C11.11 46.19 14.18 44.1 17.71 43.14L19.8 42.57L19.72 40.4C19.7 40.02 19.68 39.83 19.69 39.8C19.69 35.43 21.37 31.48 24.12 28.51C26.88 25.54 30.69 23.59 34.96 23.24L37.28 23.05L37.47 20.73C37.82 16.46 39.77 12.64 42.74 9.89C45.71 7.14 49.66 5.46 54.03 5.46C58.63 5.46 62.77 7.32 65.79 10.33C68.8 13.35 70.66 17.49 70.66 22.09V33.14V33.15ZM53.66 20.77C53.66 21.24 53.48 21.64 53.17 21.95C52.86 22.26 52.46 22.44 51.99 22.44C51.52 22.44 51.12 22.26 50.81 21.95C50.5 21.64 50.32 21.24 50.32 20.77C50.32 20.3 50.5 19.9 50.81 19.59C51.12 19.28 51.52 19.1 51.99 19.1C52.46 19.1 52.86 19.28 53.17 19.59C53.48 19.9 53.66 20.3 53.66 20.77ZM41.85 39.03C41.85 39.5 41.67 39.9 41.36 40.21C41.05 40.52 40.65 40.7 40.18 40.7C39.71 40.7 39.31 40.52 39 40.21C38.69 39.9 38.51 39.5 38.51 39.03C38.51 38.56 38.69 38.16 39 37.85C39.31 37.54 39.71 37.36 40.18 37.36C40.65 37.36 41.05 37.54 41.36 37.85C41.67 38.16 41.85 38.56 41.85 39.03ZM24.07 59.81C24.07 60.28 23.89 60.68 23.58 60.99C23.27 61.3 22.87 61.48 22.4 61.48C21.93 61.48 21.53 61.3 21.22 60.99C20.91 60.68 20.73 60.28 20.73 59.81C20.73 59.34 20.91 58.94 21.22 58.63C21.53 58.32 21.93 58.14 22.4 58.14C22.87 58.14 23.27 58.32 23.58 58.63C23.89 58.94 24.07 59.34 24.07 59.81ZM46.26 72.72C46.26 73.19 46.08 73.59 45.77 73.9C45.46 74.21 45.06 74.39 44.59 74.39C44.12 74.39 43.72 74.21 43.41 73.9C43.1 73.59 42.92 73.19 42.92 72.72C42.92 72.25 43.1 71.85 43.41 71.54C43.72 71.23 44.12 71.05 44.59 71.05C45.06 71.05 45.46 71.23 45.77 71.54C46.08 71.85 46.26 72.25 46.26 72.72Z" fill="#090962"/>
    <path d="M153.55 45.64C151.07 42.45 147.73 39.97 143.88 38.51C143.57 33.23 141.43 28.42 138.05 24.79C134.88 21.38 130.63 18.97 125.85 18.09C124.97 13.31 122.56 9.06 119.15 5.89C115.21 2.24 109.92 0 104.14 0C98.05 0 92.51 2.48 88.52 6.47C84.53 10.46 82.05 16 82.05 22.09V94.01C82.05 100.1 84.53 105.64 88.52 109.63C92.51 113.62 98.05 116.1 104.14 116.1C108.86 116.1 113.25 114.61 116.83 112.08C119.97 109.86 122.51 106.84 124.15 103.32C129.07 102.46 133.44 100 136.66 96.47C140.24 92.55 142.44 87.31 142.43 81.58C142.43 81.14 142.39 80.72 142.37 80.29C146.53 79.06 150.18 76.65 152.91 73.45C156.19 69.61 158.17 64.6 158.17 59.15C158.17 54.06 156.44 49.36 153.54 45.63L153.55 45.64ZM148.76 69.91C146.29 72.81 142.84 74.85 138.93 75.52L136.23 75.99L136.71 78.69C136.88 79.66 136.98 80.63 136.98 81.59C136.98 85.92 135.34 89.83 132.64 92.79C129.94 95.75 126.19 97.72 121.98 98.13L120.29 98.29L119.69 99.88C118.5 103.02 116.39 105.72 113.69 107.62C110.99 109.52 107.71 110.64 104.15 110.64C99.55 110.64 95.41 108.78 92.39 105.77C89.38 102.75 87.52 98.61 87.52 94.01V75.44H106.56C106.92 76.31 107.45 77.1 108.11 77.76C109.39 79.05 111.2 79.85 113.16 79.85C115.12 79.85 116.93 79.05 118.21 77.76C119.5 76.48 120.3 74.67 120.3 72.71C120.3 70.75 119.5 68.94 118.21 67.66C116.93 66.37 115.12 65.57 113.16 65.57C111.2 65.57 109.39 66.37 108.11 67.66C107.45 68.31 106.93 69.1 106.56 69.98H87.52V62.54H129.18C129.54 63.41 130.07 64.2 130.73 64.86C132.01 66.15 133.82 66.95 135.78 66.95C137.74 66.95 139.55 66.15 140.83 64.86C142.12 63.58 142.92 61.77 142.92 59.81C142.92 57.85 142.12 56.04 140.83 54.76C139.55 53.47 137.74 52.67 135.78 52.67C133.82 52.67 132.01 53.47 130.73 54.76C130.07 55.41 129.55 56.2 129.18 57.08H87.52V50.64H108.74L115.14 45.58C116.02 45.96 116.99 46.18 118 46.18C119.96 46.18 121.77 45.38 123.05 44.09C124.34 42.81 125.14 41 125.14 39.04C125.14 37.08 124.34 35.27 123.05 33.99C121.77 32.7 119.96 31.9 118 31.9C116.04 31.9 114.23 32.7 112.95 33.99C111.66 35.27 110.86 37.08 110.86 39.04C110.86 39.94 111.04 40.81 111.35 41.61L106.84 45.17H87.52V38.62H96.12L105.25 27.85C105.56 27.89 105.87 27.92 106.18 27.92C108.14 27.92 109.95 27.12 111.23 25.83C112.52 24.55 113.32 22.74 113.32 20.78C113.32 18.82 112.52 17.01 111.23 15.73C109.95 14.44 108.14 13.64 106.18 13.64C104.22 13.64 102.41 14.44 101.13 15.73C99.84 17.01 99.04 18.82 99.04 20.78C99.04 22.37 99.57 23.85 100.46 25.04L93.58 33.15H87.51V22.1C87.51 17.5 89.37 13.36 92.38 10.34C95.4 7.33 99.54 5.47 104.14 5.47C108.51 5.47 112.46 7.15 115.43 9.9C118.4 12.66 120.35 16.47 120.7 20.74L120.89 23.06L123.21 23.25C127.48 23.6 131.3 25.55 134.05 28.52C136.8 31.49 138.48 35.44 138.48 39.81C138.48 39.84 138.46 40.03 138.45 40.41L138.37 42.58L140.46 43.15C143.99 44.11 147.06 46.2 149.24 49.01C151.42 51.82 152.72 55.33 152.72 59.17C152.72 63.28 151.23 67.02 148.76 69.92V69.91ZM111.48 72.72C111.48 72.25 111.66 71.85 111.97 71.54C112.28 71.23 112.68 71.05 113.15 71.05C113.62 71.05 114.02 71.23 114.33 71.54C114.64 71.85 114.82 72.25 114.82 72.72C114.82 73.19 114.64 73.59 114.33 73.9C114.02 74.21 113.62 74.39 113.15 74.39C112.68 74.39 112.28 74.21 111.97 73.9C111.66 73.59 111.48 73.19 111.48 72.72ZM134.11 59.81C134.11 59.34 134.29 58.94 134.6 58.63C134.91 58.32 135.31 58.14 135.78 58.14C136.25 58.14 136.65 58.32 136.96 58.63C137.27 58.94 137.45 59.34 137.45 59.81C137.45 60.28 137.27 60.68 136.96 60.99C136.65 61.3 136.25 61.48 135.78 61.48C135.31 61.48 134.91 61.3 134.6 60.99C134.29 60.68 134.11 60.28 134.11 59.81ZM116.33 39.03C116.33 38.56 116.51 38.16 116.82 37.85C117.13 37.54 117.53 37.36 118 37.36C118.47 37.36 118.87 37.54 119.18 37.85C119.49 38.16 119.67 38.56 119.67 39.03C119.67 39.5 119.49 39.9 119.18 40.21C118.87 40.52 118.47 40.7 118 40.7C117.53 40.7 117.13 40.52 116.82 40.21C116.51 39.9 116.33 39.5 116.33 39.03ZM104.52 20.77C104.52 20.3 104.7 19.9 105.01 19.59C105.32 19.28 105.72 19.1 106.19 19.1C106.66 19.1 107.06 19.28 107.37 19.59C107.68 19.9 107.86 20.3 107.86 20.77C107.86 21.24 107.68 21.64 107.37 21.95C107.06 22.26 106.66 22.44 106.19 22.44C105.72 22.44 105.32 22.26 105.01 21.95C104.7 21.64 104.52 21.24 104.52 20.77Z" fill="#E46F21"/>
</svg>
